<mxfile host="app.diagrams.net" agent="Mozilla/5.0 (Windows NT 10.0; Win64; x64) AppleWebKit/537.36 (KHTML, like Gecko) Chrome/140.0.0.0 Safari/537.36" version="28.2.3">
  <diagram name="Page-1" id="kP8O7F7rmia2u1RoEwvO">
    <mxGraphModel dx="1603" dy="865" grid="1" gridSize="10" guides="1" tooltips="1" connect="1" arrows="1" fold="1" page="1" pageScale="1" pageWidth="850" pageHeight="1100" math="0" shadow="0">
      <root>
        <mxCell id="0" />
        <mxCell id="1" parent="0" />
        <mxCell id="Ev6uGsVqIUV9L9ayuAWX-30" value="" style="ellipse;whiteSpace=wrap;html=1;aspect=fixed;shadow=0;strokeColor=#3700CC;fillColor=light-dark(#000000, #ffa7ff);fontColor=#ffffff;" vertex="1" parent="1">
          <mxGeometry x="370" y="110" width="30" height="30" as="geometry" />
        </mxCell>
        <mxCell id="Ev6uGsVqIUV9L9ayuAWX-31" value="search&amp;nbsp; course&amp;nbsp;" style="rounded=1;whiteSpace=wrap;html=1;" vertex="1" parent="1">
          <mxGeometry x="310" y="170" width="145" height="60" as="geometry" />
        </mxCell>
        <mxCell id="Ev6uGsVqIUV9L9ayuAWX-32" value="welcome message" style="rounded=1;whiteSpace=wrap;html=1;" vertex="1" parent="1">
          <mxGeometry x="130" y="510" width="140" height="60" as="geometry" />
        </mxCell>
        <mxCell id="Ev6uGsVqIUV9L9ayuAWX-33" value="login / sign up" style="rounded=1;whiteSpace=wrap;html=1;" vertex="1" parent="1">
          <mxGeometry x="312.5" y="280" width="145" height="60" as="geometry" />
        </mxCell>
        <mxCell id="Ev6uGsVqIUV9L9ayuAWX-34" value="" style="rhombus;whiteSpace=wrap;html=1;" vertex="1" parent="1">
          <mxGeometry x="342.5" y="390" width="80" height="80" as="geometry" />
        </mxCell>
        <mxCell id="Ev6uGsVqIUV9L9ayuAWX-35" value="error message" style="rounded=1;whiteSpace=wrap;html=1;" vertex="1" parent="1">
          <mxGeometry x="480" y="510" width="140" height="60" as="geometry" />
        </mxCell>
        <mxCell id="Ev6uGsVqIUV9L9ayuAWX-36" value="pay for course" style="rounded=1;whiteSpace=wrap;html=1;" vertex="1" parent="1">
          <mxGeometry x="130" y="730" width="140" height="60" as="geometry" />
        </mxCell>
        <mxCell id="Ev6uGsVqIUV9L9ayuAWX-37" value="select course" style="rounded=1;whiteSpace=wrap;html=1;" vertex="1" parent="1">
          <mxGeometry x="130" y="620" width="140" height="60" as="geometry" />
        </mxCell>
        <mxCell id="Ev6uGsVqIUV9L9ayuAWX-38" value="" style="rhombus;whiteSpace=wrap;html=1;" vertex="1" parent="1">
          <mxGeometry x="160" y="830" width="80" height="80" as="geometry" />
        </mxCell>
        <mxCell id="Ev6uGsVqIUV9L9ayuAWX-39" value="enroll course" style="rounded=1;whiteSpace=wrap;html=1;" vertex="1" parent="1">
          <mxGeometry x="20" y="950" width="140" height="60" as="geometry" />
        </mxCell>
        <mxCell id="Ev6uGsVqIUV9L9ayuAWX-40" value="fail message" style="rounded=1;whiteSpace=wrap;html=1;" vertex="1" parent="1">
          <mxGeometry x="260" y="950" width="140" height="60" as="geometry" />
        </mxCell>
        <mxCell id="Ev6uGsVqIUV9L9ayuAWX-41" value="access materials" style="rounded=1;whiteSpace=wrap;html=1;" vertex="1" parent="1">
          <mxGeometry x="20" y="1050" width="140" height="60" as="geometry" />
        </mxCell>
        <mxCell id="Ev6uGsVqIUV9L9ayuAWX-43" value="logour" style="rounded=1;whiteSpace=wrap;html=1;" vertex="1" parent="1">
          <mxGeometry x="11" y="1156" width="140" height="60" as="geometry" />
        </mxCell>
        <mxCell id="Ev6uGsVqIUV9L9ayuAWX-44" style="edgeStyle=orthogonalEdgeStyle;rounded=0;orthogonalLoop=1;jettySize=auto;html=1;exitX=1;exitY=0.5;exitDx=0;exitDy=0;exitPerimeter=0;entryX=0.583;entryY=0.3;entryDx=0;entryDy=0;entryPerimeter=0;" edge="1" parent="1">
          <mxGeometry relative="1" as="geometry">
            <mxPoint x="390" y="130" as="sourcePoint" />
            <mxPoint x="394" y="117.49000000000001" as="targetPoint" />
          </mxGeometry>
        </mxCell>
        <mxCell id="Ev6uGsVqIUV9L9ayuAWX-45" value="" style="endArrow=classic;html=1;rounded=0;exitX=0.5;exitY=1;exitDx=0;exitDy=0;" edge="1" parent="1" source="Ev6uGsVqIUV9L9ayuAWX-30" target="Ev6uGsVqIUV9L9ayuAWX-31">
          <mxGeometry width="50" height="50" relative="1" as="geometry">
            <mxPoint x="390" y="170" as="sourcePoint" />
            <mxPoint x="440" y="130" as="targetPoint" />
          </mxGeometry>
        </mxCell>
        <mxCell id="Ev6uGsVqIUV9L9ayuAWX-46" value="" style="endArrow=classic;html=1;rounded=0;exitX=0.5;exitY=1;exitDx=0;exitDy=0;" edge="1" parent="1">
          <mxGeometry width="50" height="50" relative="1" as="geometry">
            <mxPoint x="383" y="230" as="sourcePoint" />
            <mxPoint x="382" y="280" as="targetPoint" />
          </mxGeometry>
        </mxCell>
        <mxCell id="Ev6uGsVqIUV9L9ayuAWX-47" value="" style="endArrow=classic;html=1;rounded=0;" edge="1" parent="1">
          <mxGeometry width="50" height="50" relative="1" as="geometry">
            <mxPoint x="550" y="430" as="sourcePoint" />
            <mxPoint x="549.5" y="510" as="targetPoint" />
          </mxGeometry>
        </mxCell>
        <mxCell id="Ev6uGsVqIUV9L9ayuAWX-48" value="" style="endArrow=classic;html=1;rounded=0;" edge="1" parent="1">
          <mxGeometry width="50" height="50" relative="1" as="geometry">
            <mxPoint x="190" y="430" as="sourcePoint" />
            <mxPoint x="190" y="510" as="targetPoint" />
          </mxGeometry>
        </mxCell>
        <mxCell id="Ev6uGsVqIUV9L9ayuAWX-49" value="" style="endArrow=classic;html=1;rounded=0;" edge="1" parent="1">
          <mxGeometry width="50" height="50" relative="1" as="geometry">
            <mxPoint x="200" y="570" as="sourcePoint" />
            <mxPoint x="199.5" y="620" as="targetPoint" />
          </mxGeometry>
        </mxCell>
        <mxCell id="Ev6uGsVqIUV9L9ayuAWX-50" value="" style="endArrow=classic;html=1;rounded=0;" edge="1" parent="1">
          <mxGeometry width="50" height="50" relative="1" as="geometry">
            <mxPoint x="200" y="680" as="sourcePoint" />
            <mxPoint x="199.5" y="730" as="targetPoint" />
          </mxGeometry>
        </mxCell>
        <mxCell id="Ev6uGsVqIUV9L9ayuAWX-51" value="" style="endArrow=classic;html=1;rounded=0;" edge="1" parent="1">
          <mxGeometry width="50" height="50" relative="1" as="geometry">
            <mxPoint x="80" y="1010" as="sourcePoint" />
            <mxPoint x="80" y="1050" as="targetPoint" />
          </mxGeometry>
        </mxCell>
        <mxCell id="Ev6uGsVqIUV9L9ayuAWX-52" value="" style="endArrow=classic;html=1;rounded=0;" edge="1" parent="1">
          <mxGeometry width="50" height="50" relative="1" as="geometry">
            <mxPoint x="80" y="1110" as="sourcePoint" />
            <mxPoint x="80" y="1156" as="targetPoint" />
          </mxGeometry>
        </mxCell>
        <mxCell id="Ev6uGsVqIUV9L9ayuAWX-54" value="" style="endArrow=classic;html=1;rounded=0;exitX=0.5;exitY=1;exitDx=0;exitDy=0;" edge="1" parent="1" source="Ev6uGsVqIUV9L9ayuAWX-43">
          <mxGeometry width="50" height="50" relative="1" as="geometry">
            <mxPoint x="81" y="1226" as="sourcePoint" />
            <mxPoint x="80.5" y="1276" as="targetPoint" />
          </mxGeometry>
        </mxCell>
        <mxCell id="Ev6uGsVqIUV9L9ayuAWX-55" value="" style="endArrow=classic;html=1;rounded=0;" edge="1" parent="1">
          <mxGeometry width="50" height="50" relative="1" as="geometry">
            <mxPoint x="330" y="870" as="sourcePoint" />
            <mxPoint x="329.5" y="950" as="targetPoint" />
          </mxGeometry>
        </mxCell>
        <mxCell id="Ev6uGsVqIUV9L9ayuAWX-56" value="" style="endArrow=classic;html=1;rounded=0;" edge="1" parent="1">
          <mxGeometry width="50" height="50" relative="1" as="geometry">
            <mxPoint x="80" y="870" as="sourcePoint" />
            <mxPoint x="80" y="950" as="targetPoint" />
          </mxGeometry>
        </mxCell>
        <mxCell id="Ev6uGsVqIUV9L9ayuAWX-57" value="" style="endArrow=none;html=1;rounded=0;exitX=0.5;exitY=0;exitDx=0;exitDy=0;" edge="1" parent="1" source="Ev6uGsVqIUV9L9ayuAWX-34">
          <mxGeometry width="50" height="50" relative="1" as="geometry">
            <mxPoint x="390" y="470" as="sourcePoint" />
            <mxPoint x="383" y="340" as="targetPoint" />
          </mxGeometry>
        </mxCell>
        <mxCell id="Ev6uGsVqIUV9L9ayuAWX-58" value="" style="endArrow=none;html=1;rounded=0;exitX=0.5;exitY=0;exitDx=0;exitDy=0;" edge="1" parent="1">
          <mxGeometry width="50" height="50" relative="1" as="geometry">
            <mxPoint x="199.5" y="830" as="sourcePoint" />
            <mxPoint x="200" y="790" as="targetPoint" />
          </mxGeometry>
        </mxCell>
        <mxCell id="Ev6uGsVqIUV9L9ayuAWX-59" value="" style="endArrow=none;html=1;rounded=0;exitX=1;exitY=0.5;exitDx=0;exitDy=0;" edge="1" parent="1" source="Ev6uGsVqIUV9L9ayuAWX-34">
          <mxGeometry width="50" height="50" relative="1" as="geometry">
            <mxPoint x="393" y="400" as="sourcePoint" />
            <mxPoint x="550" y="430" as="targetPoint" />
          </mxGeometry>
        </mxCell>
        <mxCell id="Ev6uGsVqIUV9L9ayuAWX-60" value="" style="endArrow=none;html=1;rounded=0;entryX=0;entryY=0.5;entryDx=0;entryDy=0;" edge="1" parent="1" target="Ev6uGsVqIUV9L9ayuAWX-34">
          <mxGeometry width="50" height="50" relative="1" as="geometry">
            <mxPoint x="190" y="430" as="sourcePoint" />
            <mxPoint x="720" y="390" as="targetPoint" />
          </mxGeometry>
        </mxCell>
        <mxCell id="Ev6uGsVqIUV9L9ayuAWX-61" value="" style="endArrow=none;html=1;rounded=0;exitX=1;exitY=0.5;exitDx=0;exitDy=0;" edge="1" parent="1" source="Ev6uGsVqIUV9L9ayuAWX-38">
          <mxGeometry width="50" height="50" relative="1" as="geometry">
            <mxPoint x="550" y="920" as="sourcePoint" />
            <mxPoint x="330" y="870" as="targetPoint" />
          </mxGeometry>
        </mxCell>
        <mxCell id="Ev6uGsVqIUV9L9ayuAWX-62" value="" style="endArrow=none;html=1;rounded=0;entryX=0;entryY=0.5;entryDx=0;entryDy=0;" edge="1" parent="1" target="Ev6uGsVqIUV9L9ayuAWX-38">
          <mxGeometry width="50" height="50" relative="1" as="geometry">
            <mxPoint x="80" y="870" as="sourcePoint" />
            <mxPoint x="720" y="840" as="targetPoint" />
          </mxGeometry>
        </mxCell>
        <mxCell id="Ev6uGsVqIUV9L9ayuAWX-63" value="" style="ellipse;html=1;shape=endState;fillColor=#000000;strokeColor=#000000;" vertex="1" parent="1">
          <mxGeometry x="66" y="1276" width="30" height="30" as="geometry" />
        </mxCell>
        <mxCell id="Ev6uGsVqIUV9L9ayuAWX-64" value="T" style="text;html=1;align=center;verticalAlign=middle;resizable=0;points=[];autosize=1;strokeColor=none;fillColor=none;" vertex="1" parent="1">
          <mxGeometry x="275" y="398" width="30" height="30" as="geometry" />
        </mxCell>
        <mxCell id="Ev6uGsVqIUV9L9ayuAWX-65" value="F" style="text;html=1;align=center;verticalAlign=middle;resizable=0;points=[];autosize=1;strokeColor=none;fillColor=none;" vertex="1" parent="1">
          <mxGeometry x="445" y="398" width="30" height="30" as="geometry" />
        </mxCell>
        <mxCell id="Ev6uGsVqIUV9L9ayuAWX-66" value="F" style="text;html=1;align=center;verticalAlign=middle;resizable=0;points=[];autosize=1;strokeColor=none;fillColor=none;" vertex="1" parent="1">
          <mxGeometry x="250" y="840" width="30" height="30" as="geometry" />
        </mxCell>
        <mxCell id="Ev6uGsVqIUV9L9ayuAWX-67" value="T" style="text;html=1;align=center;verticalAlign=middle;resizable=0;points=[];autosize=1;strokeColor=none;fillColor=none;" vertex="1" parent="1">
          <mxGeometry x="105" y="840" width="30" height="30" as="geometry" />
        </mxCell>
        <mxCell id="Ev6uGsVqIUV9L9ayuAWX-68" value="" style="endArrow=open;endFill=1;endSize=12;html=1;rounded=0;" edge="1" parent="1">
          <mxGeometry width="160" relative="1" as="geometry">
            <mxPoint x="680" y="250" as="sourcePoint" />
            <mxPoint x="380" y="250" as="targetPoint" />
          </mxGeometry>
        </mxCell>
        <mxCell id="Ev6uGsVqIUV9L9ayuAWX-69" value="" style="endArrow=open;endFill=1;endSize=12;html=1;rounded=0;" edge="1" parent="1">
          <mxGeometry width="160" relative="1" as="geometry">
            <mxPoint x="460" y="600" as="sourcePoint" />
            <mxPoint x="200" y="599" as="targetPoint" />
          </mxGeometry>
        </mxCell>
        <mxCell id="Ev6uGsVqIUV9L9ayuAWX-70" value="" style="endArrow=none;html=1;rounded=0;" edge="1" parent="1">
          <mxGeometry width="50" height="50" relative="1" as="geometry">
            <mxPoint x="681" y="540" as="sourcePoint" />
            <mxPoint x="680.52" y="248.98" as="targetPoint" />
          </mxGeometry>
        </mxCell>
        <mxCell id="Ev6uGsVqIUV9L9ayuAWX-71" value="" style="endArrow=none;html=1;rounded=0;entryX=1;entryY=0.5;entryDx=0;entryDy=0;" edge="1" parent="1" target="Ev6uGsVqIUV9L9ayuAWX-35">
          <mxGeometry width="50" height="50" relative="1" as="geometry">
            <mxPoint x="680" y="540" as="sourcePoint" />
            <mxPoint x="630.5" y="610" as="targetPoint" />
          </mxGeometry>
        </mxCell>
        <mxCell id="Ev6uGsVqIUV9L9ayuAWX-72" value="" style="endArrow=none;html=1;rounded=0;" edge="1" parent="1">
          <mxGeometry width="50" height="50" relative="1" as="geometry">
            <mxPoint x="460" y="980" as="sourcePoint" />
            <mxPoint x="460" y="600" as="targetPoint" />
          </mxGeometry>
        </mxCell>
        <mxCell id="Ev6uGsVqIUV9L9ayuAWX-73" value="" style="endArrow=none;html=1;rounded=0;entryX=1;entryY=0.5;entryDx=0;entryDy=0;" edge="1" parent="1" target="Ev6uGsVqIUV9L9ayuAWX-40">
          <mxGeometry width="50" height="50" relative="1" as="geometry">
            <mxPoint x="460" y="980" as="sourcePoint" />
            <mxPoint x="590.5" y="890" as="targetPoint" />
          </mxGeometry>
        </mxCell>
      </root>
    </mxGraphModel>
  </diagram>
</mxfile>
